<svg width="168" height="168" viewBox="0 0 168 168" fill="none" xmlns="http://www.w3.org/2000/svg">
<path fill-rule="evenodd" clip-rule="evenodd" d="M78.5792 30.4866C71.8468 30.4866 65.8067 33.1946 61.4687 37.5344C57.1914 41.8134 54.5689 47.6788 54.5689 54.099L54.5689 73.7484C54.5689 86.6799 65.2088 97.3608 78.5792 97.3608C84.0039 97.3608 88.4016 101.758 88.4016 107.183C88.4016 109.896 87.3015 112.352 85.5232 114.13C83.7458 115.907 81.2908 117.006 78.5792 117.006C54.579 117.006 34.9241 97.7479 34.9241 73.7484V66.9526C31.8178 68.1455 29.0159 69.9861 26.6851 72.318C22.3497 76.6555 19.6448 82.6925 19.6448 89.4209C19.6448 101.124 27.8276 110.735 38.5401 112.95C40.2319 111.569 42.3925 110.741 44.7465 110.741C50.1712 110.741 54.5689 115.139 54.5689 120.564V124.743C54.5689 137.674 65.2088 148.355 78.5791 148.355C85.3115 148.355 91.3516 145.647 95.6896 141.307C99.9669 137.028 102.589 131.163 102.589 124.743V105.093C102.589 92.162 91.9496 81.4811 78.5792 81.4811C73.1544 81.4811 68.7568 77.0835 68.7568 71.6587C68.7568 68.9456 69.8568 66.4894 71.6351 64.7118C73.4125 62.9351 75.8675 61.8363 78.5792 61.8363C102.579 61.8363 122.234 81.094 122.234 105.093V111.889C125.34 110.696 128.142 108.856 130.473 106.524C134.809 102.186 137.514 96.1494 137.514 89.4209C137.514 77.7181 129.331 68.1072 118.618 65.8918C116.926 67.2726 114.766 68.1007 112.412 68.1007C106.987 68.1007 102.589 63.7031 102.589 58.2783L102.589 54.0989C102.589 41.1674 91.9496 30.4866 78.5792 30.4866ZM121.555 46.4454C117.902 26.1333 99.9656 10.8418 78.5792 10.8418C66.4832 10.8418 55.491 15.7335 47.5625 23.6585C41.4728 29.7453 37.1906 37.6217 35.6037 46.4454C26.7865 48.0312 18.9153 52.3083 12.8302 58.3907C4.89727 66.3202 3.05176e-05 77.3181 3.05176e-05 89.4209C3.05176e-05 110.807 15.2916 128.743 35.6037 132.396C39.2567 152.709 57.1927 168 78.5791 168C90.6751 168 101.667 163.108 109.596 155.183C115.685 149.097 119.968 141.22 121.555 132.396C130.372 130.811 138.243 126.534 144.328 120.451C152.261 112.522 157.158 101.524 157.158 89.4209C157.158 68.0345 141.867 50.0984 121.555 46.4454Z" fill="black"/>
<path d="M89.4208 0C110.807 0 128.743 15.2916 132.396 35.6036L121.555 46.4454C117.902 26.1333 99.9655 10.8417 78.5791 10.8417L89.4208 0Z" fill="black"/>
<path d="M132.396 35.6038C152.708 39.2568 168 57.1928 168 78.5793L157.158 89.421C157.158 68.0346 141.866 50.0985 121.554 46.4455L132.396 35.6038Z" fill="black"/>
<path d="M148.355 78.5792C148.355 66.8763 140.172 57.2654 129.459 55.05L118.618 65.8918C129.33 68.1071 137.513 77.7181 137.513 89.4209L148.355 78.5792Z" fill="black"/>
<path d="M129.46 55.05C127.768 56.4308 125.607 57.2589 123.253 57.2589L112.412 68.1006C114.766 68.1006 116.926 67.2725 118.618 65.8918L129.46 55.05Z" fill="black"/>
<path d="M113.431 43.2571C113.431 30.3256 102.791 19.6448 89.4208 19.6448L78.5791 30.4865C91.9495 30.4865 102.589 41.1674 102.589 54.0989L113.431 43.2571Z" fill="black"/>
<path d="M113.432 47.4365L113.432 43.2571L102.59 54.0988L102.59 58.2782L113.432 47.4365Z" fill="black"/>
<path d="M58.4038 12.8167C66.3323 4.89166 77.3245 0 89.4205 0L78.5787 10.8417C66.4828 10.8417 55.4906 15.7334 47.562 23.6584L58.4038 12.8167Z" fill="black"/>
<path d="M168 78.5791C168 90.6819 163.102 101.68 155.169 109.609L144.341 120.438C152.266 112.509 157.158 101.517 157.158 89.4208L168 78.5791Z" fill="black"/>
<path d="M123.254 57.2591C117.829 57.2591 113.432 52.8615 113.432 47.4368L102.59 58.2785C102.59 63.7033 106.988 68.1009 112.412 68.1008L123.254 57.2591Z" fill="black"/>
<path d="M141.315 95.682C145.65 91.3446 148.355 85.3076 148.355 78.5791L137.513 89.4208C137.513 96.1493 134.809 102.186 130.473 106.524L141.315 95.682Z" fill="black"/>
<path d="M89.421 19.6448C82.6886 19.6448 76.6485 22.3528 72.3105 26.6926L61.4757 37.5274C65.8133 33.1916 71.8505 30.4865 78.5793 30.4865L89.421 19.6448Z" fill="black"/>
<path d="M133.076 101.047C136.178 99.8558 138.977 98.018 141.307 95.6899L130.473 106.524C128.142 108.855 125.34 110.696 122.234 111.889L133.076 101.047Z" fill="black"/>
<path d="M89.4208 50.9946C113.421 50.9946 133.076 70.2523 133.076 94.2518L122.234 105.094C122.234 81.094 102.579 61.8364 78.5791 61.8364L89.4208 50.9946Z" fill="black"/>
<path d="M133.076 94.2517V101.047L122.234 111.889V105.093L133.076 94.2517Z" fill="black"/>
<path d="M72.3099 26.6926C68.0327 30.9716 65.4101 36.837 65.4101 43.2572L54.5684 54.0989C54.5684 47.6787 57.191 41.8134 61.4682 37.5344L72.3099 26.6926Z" fill="black"/>
<path d="M82.477 53.8701C84.2544 52.0934 86.7094 50.9946 89.421 50.9946L78.5793 61.8364C75.8677 61.8364 73.4127 62.9352 71.6353 64.7118L82.477 53.8701Z" fill="black"/>
<path d="M46.4453 35.6036C48.031 26.7865 52.308 18.9155 58.3903 12.8305L47.5623 23.6584C41.4727 29.7453 37.1904 37.6216 35.6035 46.4454L46.4453 35.6036Z" fill="black"/>
<path d="M155.169 109.609C149.084 115.692 141.213 119.969 132.396 121.555L121.554 132.396C130.371 130.811 138.243 126.534 144.328 120.451L155.169 109.609Z" fill="black"/>
<path d="M79.5981 60.8171C79.5981 58.1054 80.6969 55.6504 82.4735 53.873L71.6347 64.7118C69.8564 66.4895 68.7563 68.9457 68.7563 71.6588L79.5981 60.8171Z" fill="black"/>
<path d="M113.431 94.2513C113.431 81.3198 102.791 70.6389 89.4208 70.6389L78.5791 81.4806C91.9495 81.4806 102.589 92.1615 102.589 105.093L113.431 94.2513Z" fill="black"/>
<path d="M89.4205 70.6393C83.9957 70.6393 79.5981 66.2417 79.5981 60.8169L68.7563 71.6586C68.7563 77.0834 73.154 81.481 78.5787 81.481L89.4205 70.6393Z" fill="black"/>
<path d="M65.4101 43.2571L65.4101 62.9065L54.5684 73.7482L54.5684 54.0988L65.4101 43.2571Z" fill="black"/>
<path d="M113.432 113.901V94.2517L102.59 105.093V124.743L113.432 113.901Z" fill="black"/>
<path d="M89.4208 86.519C94.8456 86.519 99.2432 90.9167 99.2432 96.3414L88.4015 107.183C88.4015 101.758 84.0039 97.3608 78.5791 97.3608L89.4208 86.519Z" fill="black"/>
<path d="M65.4101 62.9067C65.4101 75.8383 76.05 86.5191 89.4204 86.5191L78.5787 97.3608C65.2083 97.3608 54.5684 86.68 54.5684 73.7485L65.4101 62.9067Z" fill="black"/>
<path d="M99.2431 96.3411C99.2431 99.0542 98.143 101.51 96.3647 103.288L85.5259 114.127C87.3025 112.349 88.4013 109.894 88.4013 107.183L99.2431 96.3411Z" fill="black"/>
<path d="M23.6723 47.549C29.7573 41.4666 37.6285 37.1895 46.4457 35.6038L35.604 46.4455C26.7868 48.0312 18.9156 52.3083 12.8306 58.3907L23.6723 47.549Z" fill="black"/>
<path d="M132.396 121.555C130.809 130.378 126.527 138.255 120.437 144.342L109.61 155.17C115.692 149.085 119.969 141.214 121.555 132.396L132.396 121.555Z" fill="black"/>
<path d="M96.3649 103.288C94.5875 105.065 92.1325 106.164 89.4208 106.164L78.5791 117.005C81.2908 117.005 83.7457 115.907 85.5231 114.13L96.3649 103.288Z" fill="black"/>
<path d="M106.531 130.466C110.808 126.187 113.431 120.321 113.431 113.901L102.589 124.743C102.589 131.163 99.9667 137.028 95.6895 141.307L106.531 130.466Z" fill="black"/>
<path d="M45.7656 62.9064V56.1106L34.9239 66.9523V73.7481L45.7656 62.9064Z" fill="black"/>
<path d="M89.4207 106.164C65.4205 106.164 45.7656 86.9062 45.7656 62.9067L34.9239 73.7485C34.9239 97.748 54.5788 117.006 78.5789 117.006L89.4207 106.164Z" fill="black"/>
<path d="M45.7658 56.1106C42.6595 57.3035 39.8575 59.1441 37.5268 61.4759L26.6932 72.3096C29.0223 69.9816 31.8213 68.1438 34.924 66.9523L45.7658 56.1106Z" fill="black"/>
<path d="M89.4208 137.513C96.1496 137.513 102.187 134.808 106.524 130.473L95.6896 141.307C91.3516 145.647 85.3115 148.355 78.5791 148.355L89.4208 137.513Z" fill="black"/>
<path d="M37.5271 61.4763C33.1916 65.8138 30.4867 71.8508 30.4867 78.5793L19.645 89.421C19.645 82.6925 22.3499 76.6555 26.6853 72.318L37.5271 61.4763Z" fill="black"/>
<path d="M55.5883 99.8994C61.0131 99.8994 65.4107 104.297 65.4107 109.722L54.569 120.564C54.569 115.139 50.1713 110.741 44.7466 110.741L55.5883 99.8994Z" fill="black"/>
<path d="M10.8418 78.5791C10.8418 66.483 15.7335 55.4907 23.6587 47.5621L12.8302 58.3906C4.89727 66.3201 3.05176e-05 77.318 3.05176e-05 89.4208L10.8418 78.5791Z" fill="black"/>
<path d="M120.438 144.342C112.509 152.267 101.517 157.158 89.4208 157.158L78.5791 168C90.6751 168 101.667 163.108 109.596 155.183L120.438 144.342Z" fill="black"/>
<path d="M65.4101 109.722V113.901L54.5684 124.743V120.564L65.4101 109.722Z" fill="black"/>
<path d="M65.4101 113.901C65.4101 126.833 76.05 137.513 89.4204 137.513L78.5787 148.355C65.2083 148.355 54.5684 137.674 54.5684 124.743L65.4101 113.901Z" fill="black"/>
<path d="M49.3823 102.108C51.0741 100.728 53.2347 99.8994 55.5887 99.8994L44.747 110.741C42.3929 110.741 40.2323 111.569 38.5406 112.95L49.3823 102.108Z" fill="black"/>
<path d="M30.4867 78.5791C30.4867 90.2819 38.6695 99.8929 49.382 102.108L38.5403 112.95C27.8278 110.735 19.645 101.124 19.645 89.4208L30.4867 78.5791Z" fill="black"/>
<path d="M46.4454 121.555C26.1333 117.902 10.8418 99.9655 10.8418 78.5791L3.05176e-05 89.4208C3.05176e-05 110.807 15.2916 128.743 35.6037 132.396L46.4454 121.555Z" fill="black"/>
<path d="M89.4208 157.158C68.0344 157.158 50.0983 141.867 46.4453 121.555L35.6035 132.396C39.2565 152.708 57.1926 168 78.579 168L89.4208 157.158Z" fill="black"/>
<path d="M46.7659 56.1108V54.6556L45.4074 55.1773C36.1448 58.7343 29.4866 67.8108 29.4866 78.5791C29.4866 90.759 38.0052 100.777 49.1793 103.088L49.6454 103.184L50.0141 102.883C51.534 101.643 53.473 100.899 55.5882 100.899C60.4607 100.899 64.4106 104.849 64.4106 109.722V113.901C64.4106 127.395 75.508 138.513 89.4209 138.513C103.334 138.513 114.431 127.395 114.431 113.901V94.2517C114.431 80.7581 103.334 69.6393 89.4209 69.6393C84.5485 69.6393 80.5985 65.6894 80.5985 60.8169C80.5985 55.9445 84.5485 51.9945 89.4209 51.9945C112.881 51.9945 132.076 70.8164 132.076 94.2517V101.047V102.503L133.434 101.981C142.697 98.424 149.355 89.3475 149.355 78.5791C149.355 66.3993 140.837 56.3815 129.663 54.0707L129.196 53.9744L128.828 54.2753C127.308 55.5157 125.369 56.2589 123.254 56.2589C118.381 56.2589 114.431 52.309 114.431 47.4365L114.431 43.2571C114.431 29.7636 103.334 18.6448 89.4209 18.6448C75.508 18.6448 64.4106 29.7636 64.4106 43.2572L64.4106 62.9066C64.4106 76.4001 75.508 87.519 89.4209 87.519C94.2934 87.519 98.2433 91.4689 98.2433 96.3414C98.2433 101.214 94.2934 105.164 89.4209 105.164C65.9611 105.164 46.7659 86.3419 46.7659 62.9066V56.1108ZM131.412 35.7806L131.535 36.4648L132.219 36.5878C152.055 40.1551 167 57.6761 167 78.5791C167 99.4822 152.055 117.003 132.219 120.57L131.535 120.693L131.412 121.378C127.845 141.213 110.324 156.158 89.4209 156.158C68.5179 156.158 50.9968 141.213 47.4296 121.378L47.3066 120.693L46.6224 120.57C26.7874 117.003 11.8418 99.4822 11.8418 78.5791C11.8418 57.6761 26.7874 40.1551 46.6224 36.5878L47.3066 36.4648L47.4296 35.7806C50.9969 15.9456 68.5179 1 89.4209 1C110.324 1 127.845 15.9456 131.412 35.7806Z" fill="url(#paint0_linear_2861_19719)" stroke="black" stroke-width="2" stroke-linecap="round"/>
<defs>
<linearGradient id="paint0_linear_2861_19719" x1="89.4209" y1="0" x2="89.4209" y2="157.158" gradientUnits="userSpaceOnUse">
<stop stop-color="#DFFF60"/>
<stop offset="0.46875" stop-color="#FFC397"/>
<stop offset="1" stop-color="#E0B8FF"/>
</linearGradient>
</defs>
</svg>
